<svg height="30px" viewBox="0 -34 512.00162 512" width="30px" xmlns="http://www.w3.org/2000/svg">
    <path fill='#39AFE5'
        d="m195.15625 184.613281v-12.367187c0-4.144532-3.359375-7.503906-7.5-7.503906-4.144531 0-7.503906 3.359374-7.503906 7.503906v12.367187c0 4.144531 3.359375 7.503907 7.503906 7.503907 4.140625 0 7.5-3.359376 7.5-7.503907zm0 0" />
    <path fill='#39AFE5'
        d="m331.835938 184.613281v-12.367187c0-4.144532-3.359376-7.503906-7.503907-7.503906-4.140625 0-7.5 3.359374-7.5 7.503906v12.367187c0 4.144531 3.359375 7.503907 7.5 7.503907 4.144531 0 7.503907-3.359376 7.503907-7.503907zm0 0" />
    <path fill='#39AFE5'
        d="m255.996094 198.71875c8.738281 0 16.941406-3.65625 22.511718-10.027344 2.726563-3.121094 2.410157-7.859375-.710937-10.585937-3.117187-2.726563-7.855469-2.410157-10.585937.710937-2.71875 3.113282-6.808594 4.898438-11.214844 4.898438-4.410156 0-8.5-1.785156-11.21875-4.898438-2.730469-3.117187-7.46875-3.4375-10.585938-.710937-3.121094 2.726562-3.4375 7.464843-.710937 10.585937 5.570312 6.371094 13.773437 10.027344 22.515625 10.027344zm0 0" />
    <path fill='#39AFE5'
        d="m442.371094 51.082031c-8.527344-11.859375-20.320313-20.664062-34.097656-25.453125l-54.390626-18.945312c-.378906-.132813-.789062-.238282-1.183593-.304688l-36.125-6.265625c-4.082031-.710937-7.964844 2.027344-8.671875 6.109375-4.378906 25.242188-26.210938 43.566406-51.90625 43.566406-25.699219 0-47.53125-18.324218-51.910156-43.566406-.707032-4.082031-4.589844-6.820312-8.671876-6.109375-12.042968 2.085938-24.082031 4.175781-36.121093 6.265625-.402344.066406-.804688.167969-1.1875.300782l-54.386719 18.945312c-13.78125 4.792969-25.574219 13.59375-34.101562 25.457031 0 0-66.210938 92.113281-66.277344 92.207031-5.894532 8.199219-3.753906 20.027344 4.589844 25.65625 0 0 57.34375 38.710938 57.363281 38.726563 6.800781 4.589844 16.101562 3.964844 22.226562-1.484375l22.566407-20.058594-.074219 136.625c-.003907 4.140625 3.351562 7.503906 7.5 7.503906 4.140625 0 7.5-3.355468 7.503906-7.496093 0 0 .082031-152.996094.082031-153.339844.003906-6.347656-7.734375-9.835937-12.484375-5.613281l-12.386719 11.007812-68.046874-45.9375 49.621093-69.039062c6.714844-9.339844 16-16.269532 26.851563-20.042969l46.386718-16.160156c.03125.109375.066407.214843.09375.324219 6.101563 23.0625 20.238282 43.53125 39.554688 57.648437 19.125 13.976563 42.992188 20.917969 66.625 19.703125 15.019531-.773438 29.890625-4.828125 43.203125-11.820312.925781-.273438 1.8125-.726563 2.605469-1.371094 3.089844-2.511719 3.65625-6.96875 1.378906-10.164063-2.109375-3.089843-6.511719-4.164062-9.796875-2.371093-13.027344 7.105468-27.871094 10.867187-42.707031 10.867187-22.421875 0-44.753906-8.691406-61.164063-24.121094-12.113281-11.386719-20.917969-26.082031-25.179687-42.160156-.03125-.113281-.054688-.230469-.085938-.347656l21.425782-3.714844c8.285156 28.613281 34.527343 48.683594 65.003906 48.683594 30.472656 0 56.71875-20.070313 65-48.683594l21.421875 3.714844c-3.804688 14.539062-11.386719 28.011719-21.75 38.894531-2.855469 3-2.742188 7.75.257812 10.605469 2.117188 2.019531 5.414063 2.644531 8.164063 1.453125 2.917968-1.265625 5.085937-4.554688 7.050781-6.933594 9.667969-11.710938 16.953125-25.496094 20.804687-40.207031l46.398438 16.160156c10.847656 3.773437 20.132812 10.703125 26.847656 20.042969l49.621094 69.039062-68.046875 45.9375s-12.339844-10.96875-12.386719-11.007812c-4.757812-4.226563-12.488281-.726563-12.484375 5.613281l.136719 253.8125c0 .179687.007812.359375.019531.539063.21875 3.097656-2.273437 5.777343-5.375 5.777343 0 0-250.703125 0-251.355469 0-3.113281 0-5.605468-2.6875-5.378906-5.777343.011719-.179688.019532-.359376.019532-.539063l.039062-70.464844c0-4.144531-3.355469-7.503906-7.503906-7.507812-4.140625 0-7.5 3.355469-7.5 7.5 0 0-.039063 70.101562-.039063 70.226562-.007812 11.550781 8.351563 21.566407 20.359375 21.566407h251.359375c11.542969 0 21.023438-10.050782 20.359375-21.566407l-.125-236.859375s22.550782 20.046875 22.558594 20.058594c6.140625 5.453125 15.433594 6.0625 22.238281 1.480469 0 0 57.300781-38.683594 57.355469-38.722657 8.375-5.65625 10.488281-17.449218 4.589844-25.65625zm-353.71875 134.023438s-11.085938 9.855469-11.101563 9.867187c-1.066406.949219-2.691406 1.054688-3.867187.257813 0 0-57.363282-38.722657-57.363282-38.722657-1.460937-.988281-1.824218-3.03125-.796874-4.460937l7.890624-10.980469zm408.335937-30.664063c-.144531.808594-.589843 1.570313-1.324219 2.066406 0 0-57.347656 38.71875-57.359374 38.726563-1.203126.804687-2.792969.695313-3.867188-.261719l-11.101562-9.867187 65.238281-44.039063s7.878906 10.960938 7.894531 10.980469c.496094.691406.664062 1.570313.519531 2.394531zm0 0" />
</svg>