<svg height="511pt" viewBox="0 -136 511.99811 511" width="511pt" xmlns="http://www.w3.org/2000/svg"><path d="m472.140625 121.550781c-12.453125-3.355469-24.910156-6.707031-37.363281-10.066406-13.742188-3.703125-27.484375-7.40625-41.230469-11.105469-16.226563-4.375-33.066406-8.953125-48.34375-15.949218-12.234375-5.601563-23.914063-12.402344-34.886719-20.191407-.066406-.042969-.171875-.113281-.265625-.175781-.003906-.003906-.085937-.0625-.089843-.066406-14.175782-10.054688-29.496094-20.925782-44.957032-32.199219-.015625-.011719-.03125-.023437-.046875-.035156-10.039062-7.324219-20.160156-14.835938-30.113281-22.453125-10.296875-7.878906-22.992188-11.90625-35.167969-5.964844-3.15625 1.542969-6.019531 3.613281-8.605469 5.980469-4.910156 4.496093-8.757812 10.03125-12.367187 15.582031-7.503906 11.535156-15.617187 20.621094-24.816406 27.777344-5.375 4.183594-11.839844 7.480468-19.214844 9.804687-20.070313 6.324219-41.320313 2.710938-54.140625-9.195312-4.484375-4.164063-7.863281-9.109375-12.226562-13.355469-9.605469-9.355469-25.984376-11.1875-38.945313-4.355469-13.316406 7.019531-15.917969 19.464844-18.214844 30.441407-2.015625 9.636718-3.769531 19.257812-5.273437 29.019531-1.511719 9.808593-2.734375 19.488281-3.664063 28.996093-1.304687 13.3125-2.019531 26.273438-2.1640622 38.800782-.0273438 2.390625-.0546876 4.78125-.03906255 7.140625.04687495 8.441406 3.75781275 15.945312 9.43749975 20.652343 1.1875.980469 2.457032 1.839844 3.800782 2.5625v21.605469c0 13.316407 9.796874 24.152344 21.832031 24.152344h49.523437c4.152344 0 7.515625-3.367187 7.515625-7.519531s-3.363281-7.519532-7.515625-7.519532h-49.523437c-3.683594 0-6.796875-4.171874-6.796875-9.113281v-19.039062h179.027344c15.105468 0 30.121093 2.136719 44.707031 6.371093l78.25 21.78125h-199.558594c-4.152344 0-7.519531 3.367188-7.519531 7.519532s3.367187 7.519531 7.519531 7.519531h254.597656c.285157 0 .566407-.023437.84375-.054687.03125-.003907.058594 0 .085938-.003907l83.128906-10.355469c24.308594-2.839843 42.640625-25.925781 42.640625-53.703124 0-26.667969-16.746094-49.011719-39.859375-53.285157zm-86.644531-7.769531-39.828125 4.816406c-13.03125 1.578125-26.023438-1.832031-36.601563-9.601562l-16.398437-12.042969 14.597656-16.566406c4.359375 2.90625 8.8125 5.671875 13.355469 8.28125 16.390625 9.410156 34.113281 16.824219 52.445312 21.765625.003906 0 9.453125 2.546875 9.453125 2.546875zm-189.246094-87.640625c.023438-.03125.050781-.066406.074219-.097656.136719-.175781.273437-.339844.410156-.511719.277344-.34375.550781-.679688.824219-1.003906.082031-.097656.164062-.195313.242187-.289063 3.277344-3.847656 7.753907-8.65625 13.160157-9.070312 5.25-.40625 10.765624 3.046875 14.746093 6.089843 7.855469 6.011719 15.839844 11.972657 23.820313 17.839844l-14 15.886719zm65.46875 21.863281c11.351562 8.230469 22.515625 16.175782 33.140625 23.71875l-14.359375 16.292969-32.808594-24.09375zm205.839844 165.609375-81.691406 10.175781-129.742188-36.117187c-15.871094-4.609375-32.296875-6.945313-48.820312-6.945313h-98.742188c-2.542969-14.402343-8.136719-28.476562-16.6875-41.929687-2.226562-3.5-6.875-4.539063-10.378906-2.308594-3.503906 2.226563-4.539063 6.871094-2.308594 10.375 6.957031 10.949219 11.671875 22.300781 14.070312 33.859375h-69.933593c-1.957031 0-3.785157-.957031-5.226563-2.527344-1.835937-2.007812-3.039062-5.011718-3.058594-8.308593-.015624-2.5.003907-5.027344.039063-7.566407.164063-11.910156.859375-24.230468 2.097656-36.875.902344-9.207031 2.089844-18.589843 3.558594-28.109374.230469-1.503907.480469-3.011719.726563-4.519532 8.582031 5.339844 18.871093 12.480469 28.933593 21.273438 3.125 2.730468 7.875 2.410156 10.605469-.714844 2.734375-3.125 2.414062-7.875-.710938-10.609375-12.871093-11.242187-26.027343-19.925781-36.003906-25.816406.507813-2.628907 1.03125-5.246094 1.574219-7.847657 2.203125-10.535156 3.777344-16.667968 10.507813-20.21875 2.835937-1.492187 6.40625-2.398437 9.984374-2.398437 4.191407 0 8.398438 1.238281 11.460938 4.222656 1.699219 1.652344 3.359375 3.597657 5.121094 5.65625 2.25 2.636719 4.582031 5.363281 7.363281 7.945313 16.714844 15.523437 43.753906 20.4375 68.890625 12.519531 9.085938-2.859375 17.136719-6.992187 23.929688-12.277344 9.039062-7.03125 17.105468-15.601562 24.535156-26.074219l44.539062 32.710938c.003906.003906.011719.007812.015625.011719l67.960938 49.914062c11.488281 8.4375 25.183593 12.894531 39.257812 12.894531 2.671875 0 5.359375-.160156 8.046875-.484374l76.824219-9.289063 44.234375 11.917969c.214844.054687.433594.105468.652344.144531 15.835937 2.792969 27.777344 19.363281 27.777344 38.539063.003906 20.148437-12.617188 36.816406-29.402344 38.777343zm0 0"/></svg>